{
  "accessors": [
    {
      "bufferView": 2,
      "componentType": 5126,
      "count": 65532,
      "max": [
        14.762063980102539,
        12.714788436889648,
        5.550114154815674
      ],
      "min": [
        -3.3091092109680176,
        -8.094070434570313,
        -0.1250009536743164
      ],
      "type": "VEC3"
    },
    {
      "bufferView": 2,
      "byteOffset": 786384,
      "componentType": 5126,
      "count": 65532,
      "max": [
        0.9999935030937195,
        0.9992673397064209,
        0.9999971389770508
      ],
      "min": [
        -0.9999866485595703,
        -0.99997878074646,
        -0.9998388886451721
      ],
      "type": "VEC3"
    },
    {
      "bufferView": 1,
      "componentType": 5126,
      "count": 65532,
      "max": [
        0.9995726943016052,
        0.9998167753219604
      ],
      "min": [
        0.00018310546875,
        0.00042714609298855066
      ],
      "type": "VEC2"
    },
    {
      "bufferView": 0,
      "componentType": 5125,
      "count": 249978,
      "type": "SCALAR"
    },
    {
      "bufferView": 2,
      "byteOffset": 1572768,
      "componentType": 5126,
      "count": 65532,
      "max": [
        13.326107025146484,
        6.954973220825195,
        5.5953569412231445
      ],
      "min": [
        -6.384516716003418,
        -10.364656448364258,
        -0.41039276123046875
      ],
      "type": "VEC3"
    },
    {
      "bufferView": 2,
      "byteOffset": 2359152,
      "componentType": 5126,
      "count": 65532,
      "max": [
        0.9998427033424377,
        0.9995942711830139,
        1.0
      ],
      "min": [
        -0.9999954700469971,
        -0.999937891960144,
        -0.9994466304779053
      ],
      "type": "VEC3"
    },
    {
      "bufferView": 1,
      "byteOffset": 524256,
      "componentType": 5126,
      "count": 65532,
      "max": [
        0.99957275390625,
        0.9998167753219604
      ],
      "min": [
        0.00018310546875,
        0.00042714609298855066
      ],
      "type": "VEC2"
    },
    {
      "bufferView": 0,
      "byteOffset": 999912,
      "componentType": 5125,
      "count": 212520,
      "type": "SCALAR"
    },
    {
      "bufferView": 2,
      "byteOffset": 3145536,
      "componentType": 5126,
      "count": 65532,
      "max": [
        11.442413330078125,
        9.186147689819336,
        5.538573741912842
      ],
      "min": [
        -12.821950912475586,
        -10.36821174621582,
        -0.41039276123046875
      ],
      "type": "VEC3"
    },
    {
      "bufferView": 2,
      "byteOffset": 3931920,
      "componentType": 5126,
      "count": 65532,
      "max": [
        0.9999409914016724,
        0.99942946434021,
        0.9999991655349731
      ],
      "min": [
        -0.9998250603675842,
        -0.9999768137931824,
        -0.9996521472930908
      ],
      "type": "VEC3"
    },
    {
      "bufferView": 1,
      "byteOffset": 1048512,
      "componentType": 5126,
      "count": 65532,
      "max": [
        0.9995726943016052,
        0.9998167753219604
      ],
      "min": [
        0.00018310546875,
        0.00042714609298855066
      ],
      "type": "VEC2"
    },
    {
      "bufferView": 0,
      "byteOffset": 1849992,
      "componentType": 5125,
      "count": 229974,
      "type": "SCALAR"
    },
    {
      "bufferView": 2,
      "byteOffset": 4718304,
      "componentType": 5126,
      "count": 65532,
      "max": [
        14.812265396118164,
        17.41316795349121,
        5.218550205230713
      ],
      "min": [
        -12.746641159057617,
        -10.169273376464844,
        -0.22875499725341797
      ],
      "type": "VEC3"
    },
    {
      "bufferView": 2,
      "byteOffset": 5504688,
      "componentType": 5126,
      "count": 65532,
      "max": [
        0.9997572898864746,
        0.9993175268173218,
        0.9999969005584717
      ],
      "min": [
        -0.9999577403068542,
        -0.9999923706054688,
        -0.9983349442481995
      ],
      "type": "VEC3"
    },
    {
      "bufferView": 1,
      "byteOffset": 1572768,
      "componentType": 5126,
      "count": 65532,
      "max": [
        0.9995726943016052,
        0.9998167753219604
      ],
      "min": [
        0.00018310546875,
        0.00042714609298855066
      ],
      "type": "VEC2"
    },
    {
      "bufferView": 0,
      "byteOffset": 2769888,
      "componentType": 5125,
      "count": 246870,
      "type": "SCALAR"
    },
    {
      "bufferView": 2,
      "byteOffset": 6291072,
      "componentType": 5126,
      "count": 65533,
      "max": [
        14.829591751098633,
        17.41316795349121,
        4.262449741363525
      ],
      "min": [
        -13.001632690429688,
        -6.179027557373047,
        -0.41039276123046875
      ],
      "type": "VEC3"
    },
    {
      "bufferView": 2,
      "byteOffset": 7077468,
      "componentType": 5126,
      "count": 65533,
      "max": [
        0.9999781847000122,
        0.9993929862976074,
        0.9999987483024597
      ],
      "min": [
        -0.9999527335166931,
        -0.9999625086784363,
        -0.999780535697937
      ],
      "type": "VEC3"
    },
    {
      "bufferView": 1,
      "byteOffset": 2097024,
      "componentType": 5126,
      "count": 65533,
      "max": [
        0.9995726943016052,
        0.9998167753219604
      ],
      "min": [
        0.00018310546875,
        0.00042714609298855066
      ],
      "type": "VEC2"
    },
    {
      "bufferView": 0,
      "byteOffset": 3757368,
      "componentType": 5125,
      "count": 200400,
      "type": "SCALAR"
    },
    {
      "bufferView": 2,
      "byteOffset": 7863864,
      "componentType": 5126,
      "count": 65532,
      "max": [
        13.252744674682617,
        16.36124610900879,
        5.550114154815674
      ],
      "min": [
        -12.711668014526367,
        -10.417158126831055,
        -0.3550386428833008
      ],
      "type": "VEC3"
    },
    {
      "bufferView": 2,
      "byteOffset": 8650248,
      "componentType": 5126,
      "count": 65532,
      "max": [
        0.9999607801437378,
        0.9994285702705383,
        0.9999866485595703
      ],
      "min": [
        -0.9999963641166687,
        -0.9999809861183167,
        -0.9988990426063538
      ],
      "type": "VEC3"
    },
    {
      "bufferView": 1,
      "byteOffset": 2621288,
      "componentType": 5126,
      "count": 65532,
      "max": [
        0.9995726943016052,
        0.9998167753219604
      ],
      "min": [
        0.00018310546875,
        0.00042714609298855066
      ],
      "type": "VEC2"
    },
    {
      "bufferView": 0,
      "byteOffset": 4558968,
      "componentType": 5125,
      "count": 204507,
      "type": "SCALAR"
    },
    {
      "bufferView": 2,
      "byteOffset": 9436632,
      "componentType": 5126,
      "count": 21598,
      "max": [
        0.4178776741027832,
        13.490461349487305,
        3.8814449310302734
      ],
      "min": [
        -12.686089515686035,
        -4.885190963745117,
        -0.3550386428833008
      ],
      "type": "VEC3"
    },
    {
      "bufferView": 2,
      "byteOffset": 9695808,
      "componentType": 5126,
      "count": 21598,
      "max": [
        0.9999607801437378,
        0.9964664578437805,
        0.9999991655349731
      ],
      "min": [
        -0.9999963641166687,
        -0.9999685287475586,
        -0.9990726709365845
      ],
      "type": "VEC3"
    },
    {
      "bufferView": 1,
      "byteOffset": 3145544,
      "componentType": 5126,
      "count": 21598,
      "max": [
        0.9995726943016052,
        0.9998167753219604
      ],
      "min": [
        0.00018310546875,
        0.00042714609298855066
      ],
      "type": "VEC2"
    },
    {
      "bufferView": 0,
      "byteOffset": 5376996,
      "componentType": 5125,
      "count": 62256,
      "type": "SCALAR"
    },
    {
      "bufferView": 2,
      "byteOffset": 9954984,
      "componentType": 5126,
      "count": 65532,
      "max": [
        13.581239700317383,
        7.441225051879883,
        5.5953569412231445
      ],
      "min": [
        -4.3425140380859375,
        -4.521974563598633,
        0.39903736114501953
      ],
      "type": "VEC3"
    },
    {
      "bufferView": 2,
      "byteOffset": 10741368,
      "componentType": 5126,
      "count": 65532,
      "max": [
        0.9998989105224609,
        0.9996692538261414,
        0.9999887347221375
      ],
      "min": [
        -0.9999939799308777,
        -0.9999996423721313,
        -0.9995261430740356
      ],
      "type": "VEC3"
    },
    {
      "bufferView": 1,
      "byteOffset": 3318328,
      "componentType": 5126,
      "count": 65532,
      "max": [
        0.9995726346969604,
        0.6232298612594604
      ],
      "min": [
        0.00018310546875,
        0.00042732490692287683
      ],
      "type": "VEC2"
    },
    {
      "bufferView": 0,
      "byteOffset": 5626020,
      "componentType": 5125,
      "count": 282522,
      "type": "SCALAR"
    },
    {
      "bufferView": 2,
      "byteOffset": 11527752,
      "componentType": 5126,
      "count": 65532,
      "max": [
        14.722391128540039,
        17.26788902282715,
        5.5953569412231445
      ],
      "min": [
        -12.785077095031738,
        -10.417449951171875,
        -0.41039276123046875
      ],
      "type": "VEC3"
    },
    {
      "bufferView": 2,
      "byteOffset": 12314136,
      "componentType": 5126,
      "count": 65532,
      "max": [
        0.9999762177467346,
        0.9999436736106873,
        0.9999929666519165
      ],
      "min": [
        -0.9999968409538269,
        -0.9999917149543762,
        -0.9983349442481995
      ],
      "type": "VEC3"
    },
    {
      "bufferView": 1,
      "byteOffset": 3842584,
      "componentType": 5126,
      "count": 65532,
      "max": [
        0.9995726943016052,
        0.6329954862594604
      ],
      "min": [
        0.00018310546875,
        0.00042732490692287683
      ],
      "type": "VEC2"
    },
    {
      "bufferView": 0,
      "byteOffset": 6756108,
      "componentType": 5125,
      "count": 255891,
      "type": "SCALAR"
    },
    {
      "bufferView": 2,
      "byteOffset": 13100520,
      "componentType": 5126,
      "count": 65532,
      "max": [
        14.829591751098633,
        17.319162368774414,
        4.253757476806641
      ],
      "min": [
        -13.001632690429688,
        -10.068950653076172,
        -0.22190093994140625
      ],
      "type": "VEC3"
    },
    {
      "bufferView": 2,
      "byteOffset": 13886904,
      "componentType": 5126,
      "count": 65532,
      "max": [
        0.9998712539672852,
        0.9996839165687561,
        0.9999998211860657
      ],
      "min": [
        -0.9999977350234985,
        -0.9999909996986389,
        -0.999345064163208
      ],
      "type": "VEC3"
    },
    {
      "bufferView": 1,
      "byteOffset": 4366840,
      "componentType": 5126,
      "count": 65532,
      "max": [
        0.9995726943016052,
        0.6433714628219604
      ],
      "min": [
        0.00018310546875,
        0.00042732490692287683
      ],
      "type": "VEC2"
    },
    {
      "bufferView": 0,
      "byteOffset": 7779672,
      "componentType": 5125,
      "count": 257205,
      "type": "SCALAR"
    },
    {
      "bufferView": 2,
      "byteOffset": 14673288,
      "componentType": 5126,
      "count": 65532,
      "max": [
        11.144868850708008,
        8.030370712280273,
        5.550114154815674
      ],
      "min": [
        -12.821950912475586,
        -7.906682968139648,
        -0.2057342529296875
      ],
      "type": "VEC3"
    },
    {
      "bufferView": 2,
      "byteOffset": 15459672,
      "componentType": 5126,
      "count": 65532,
      "max": [
        0.9999998807907104,
        0.9999361038208008,
        0.9999902248382568
      ],
      "min": [
        -0.9999979734420776,
        -0.999998927116394,
        -0.9996190667152405
      ],
      "type": "VEC3"
    },
    {
      "bufferView": 1,
      "byteOffset": 4891096,
      "componentType": 5126,
      "count": 65532,
      "max": [
        0.9995726346969604,
        0.6409300565719604
      ],
      "min": [
        0.00018310546875,
        0.00042732490692287683
      ],
      "type": "VEC2"
    },
    {
      "bufferView": 0,
      "byteOffset": 8808492,
      "componentType": 5125,
      "count": 262560,
      "type": "SCALAR"
    },
    {
      "bufferView": 2,
      "byteOffset": 16246056,
      "componentType": 5126,
      "count": 19419,
      "max": [
        12.496267318725586,
        -3.2817821502685547,
        2.59883975982666
      ],
      "min": [
        0.40822505950927734,
        -10.275018692016602,
        -0.1340780258178711
      ],
      "type": "VEC3"
    },
    {
      "bufferView": 2,
      "byteOffset": 16479084,
      "componentType": 5126,
      "count": 19419,
      "max": [
        0.9995688796043396,
        0.9987417459487915,
        0.999903678894043
      ],
      "min": [
        -0.9997633099555969,
        -0.9999568462371826,
        -0.9935611486434937
      ],
      "type": "VEC3"
    },
    {
      "bufferView": 1,
      "byteOffset": 5415352,
      "componentType": 5126,
      "count": 19419,
      "max": [
        0.9995723962783813,
        0.6244505643844604
      ],
      "min": [
        0.00018310546875,
        0.00042732490692287683
      ],
      "type": "VEC2"
    },
    {
      "bufferView": 0,
      "byteOffset": 9858732,
      "componentType": 5125,
      "count": 72753,
      "type": "SCALAR"
    }
  ],
  "asset": {
    "extras": {
      "author": "matousekfoto (https://sketchfab.com/matousekfoto)",
      "license": "CC-BY-NC-4.0 (http://creativecommons.org/licenses/by-nc/4.0/)",
      "source": "https://sketchfab.com/3d-models/nagoya-downtown-f542480f378f461c8aedc8f25d1c79d7",
      "title": "Nagoya downtown"
    },
    "generator": "Sketchfab-12.67.0",
    "version": "2.0"
  },
  "bufferViews": [
    {
      "buffer": 0,
      "byteLength": 10149744,
      "name": "floatBufferViews",
      "target": 34963
    },
    {
      "buffer": 0,
      "byteLength": 5570704,
      "byteOffset": 10149744,
      "byteStride": 8,
      "name": "floatBufferViews",
      "target": 34962
    },
    {
      "buffer": 0,
      "byteLength": 16712112,
      "byteOffset": 15720448,
      "byteStride": 12,
      "name": "floatBufferViews",
      "target": 34962
    }
  ],
  "buffers": [
    {
      "byteLength": 32432560,
      "uri": "scene.bin"
    }
  ],
  "extensionsUsed": [
    "KHR_materials_unlit"
  ],
  "images": [
    {
      "uri": "textures/Material_u1_v1_baseColor.jpeg"
    },
    {
      "uri": "textures/Material_u2_v1_baseColor.jpeg"
    }
  ],
  "materials": [
    {
      "doubleSided": true,
      "extensions": {
        "KHR_materials_unlit": {}
      },
      "name": "Material_u1_v1",
      "pbrMetallicRoughness": {
        "baseColorTexture": {
          "index": 0
        },
        "metallicFactor": 0.0
      }
    },
    {
      "doubleSided": true,
      "extensions": {
        "KHR_materials_unlit": {}
      },
      "name": "Material_u2_v1",
      "pbrMetallicRoughness": {
        "baseColorTexture": {
          "index": 1
        },
        "metallicFactor": 0.0
      }
    }
  ],
  "meshes": [
    {
      "name": "meshNode_Material_u1_v1_0",
      "primitives": [
        {
          "attributes": {
            "NORMAL": 1,
            "POSITION": 0,
            "TEXCOORD_0": 2
          },
          "indices": 3,
          "material": 0,
          "mode": 4
        }
      ]
    },
    {
      "name": "meshNode_Material_u1_v1_0",
      "primitives": [
        {
          "attributes": {
            "NORMAL": 5,
            "POSITION": 4,
            "TEXCOORD_0": 6
          },
          "indices": 7,
          "material": 0,
          "mode": 4
        }
      ]
    },
    {
      "name": "meshNode_Material_u1_v1_0",
      "primitives": [
        {
          "attributes": {
            "NORMAL": 9,
            "POSITION": 8,
            "TEXCOORD_0": 10
          },
          "indices": 11,
          "material": 0,
          "mode": 4
        }
      ]
    },
    {
      "name": "meshNode_Material_u1_v1_0",
      "primitives": [
        {
          "attributes": {
            "NORMAL": 13,
            "POSITION": 12,
            "TEXCOORD_0": 14
          },
          "indices": 15,
          "material": 0,
          "mode": 4
        }
      ]
    },
    {
      "name": "meshNode_Material_u1_v1_0",
      "primitives": [
        {
          "attributes": {
            "NORMAL": 17,
            "POSITION": 16,
            "TEXCOORD_0": 18
          },
          "indices": 19,
          "material": 0,
          "mode": 4
        }
      ]
    },
    {
      "name": "meshNode_Material_u1_v1_0",
      "primitives": [
        {
          "attributes": {
            "NORMAL": 21,
            "POSITION": 20,
            "TEXCOORD_0": 22
          },
          "indices": 23,
          "material": 0,
          "mode": 4
        }
      ]
    },
    {
      "name": "meshNode_Material_u1_v1_0",
      "primitives": [
        {
          "attributes": {
            "NORMAL": 25,
            "POSITION": 24,
            "TEXCOORD_0": 26
          },
          "indices": 27,
          "material": 0,
          "mode": 4
        }
      ]
    },
    {
      "name": "meshNode_Material_u2_v1_0",
      "primitives": [
        {
          "attributes": {
            "NORMAL": 29,
            "POSITION": 28,
            "TEXCOORD_0": 30
          },
          "indices": 31,
          "material": 1,
          "mode": 4
        }
      ]
    },
    {
      "name": "meshNode_Material_u2_v1_0",
      "primitives": [
        {
          "attributes": {
            "NORMAL": 33,
            "POSITION": 32,
            "TEXCOORD_0": 34
          },
          "indices": 35,
          "material": 1,
          "mode": 4
        }
      ]
    },
    {
      "name": "meshNode_Material_u2_v1_0",
      "primitives": [
        {
          "attributes": {
            "NORMAL": 37,
            "POSITION": 36,
            "TEXCOORD_0": 38
          },
          "indices": 39,
          "material": 1,
          "mode": 4
        }
      ]
    },
    {
      "name": "meshNode_Material_u2_v1_0",
      "primitives": [
        {
          "attributes": {
            "NORMAL": 41,
            "POSITION": 40,
            "TEXCOORD_0": 42
          },
          "indices": 43,
          "material": 1,
          "mode": 4
        }
      ]
    },
    {
      "name": "meshNode_Material_u2_v1_0",
      "primitives": [
        {
          "attributes": {
            "NORMAL": 45,
            "POSITION": 44,
            "TEXCOORD_0": 46
          },
          "indices": 47,
          "material": 1,
          "mode": 4
        }
      ]
    }
  ],
  "nodes": [
    {
      "children": [
        1
      ],
      "matrix": [
        0.01743583271285476,
        -0.0006371388370826278,
        -1.4147324136240598e-19,
        0.0,
        0.0,
        3.87411652891405e-18,
        -0.017447469756007195,
        0.0,
        0.0006371388370826278,
        0.01743583271285476,
        3.871532586264772e-18,
        0.0,
        -9.233799934387207,
        12.945971488952637,
        -1.4366401043698136e-05,
        1.0
      ],
      "name": "Sketchfab_model"
    },
    {
      "children": [
        2
      ],
      "matrix": [
        1.0,
        0.0,
        0.0,
        0.0,
        0.0,
        0.0,
        1.0,
        0.0,
        0.0,
        -1.0,
        0.0,
        0.0,
        0.0,
        0.0,
        0.0,
        1.0
      ],
      "name": "nagoya1.fbx"
    },
    {
      "children": [
        3
      ],
      "name": "RootNode"
    },
    {
      "children": [
        4,
        5,
        6,
        7,
        8,
        9,
        10,
        11,
        12,
        13,
        14,
        15
      ],
      "matrix": [
        7.549789959870878e-06,
        1.1102230246251565e-14,
        99.99999999999972,
        0.0,
        99.99999999999962,
        -4.371139006309477e-06,
        -7.549789954319763e-06,
        0.0,
        4.371139006309477e-06,
        99.99999999999991,
        -3.552713678800501e-13,
        0.0,
        0.0,
        0.0,
        0.0,
        1.0
      ],
      "name": "meshNode"
    },
    {
      "mesh": 0,
      "name": "meshNode_Material_u1_v1_0"
    },
    {
      "mesh": 1,
      "name": "meshNode_Material_u1_v1_0"
    },
    {
      "mesh": 2,
      "name": "meshNode_Material_u1_v1_0"
    },
    {
      "mesh": 3,
      "name": "meshNode_Material_u1_v1_0"
    },
    {
      "mesh": 4,
      "name": "meshNode_Material_u1_v1_0"
    },
    {
      "mesh": 5,
      "name": "meshNode_Material_u1_v1_0"
    },
    {
      "mesh": 6,
      "name": "meshNode_Material_u1_v1_0"
    },
    {
      "mesh": 7,
      "name": "meshNode_Material_u2_v1_0"
    },
    {
      "mesh": 8,
      "name": "meshNode_Material_u2_v1_0"
    },
    {
      "mesh": 9,
      "name": "meshNode_Material_u2_v1_0"
    },
    {
      "mesh": 10,
      "name": "meshNode_Material_u2_v1_0"
    },
    {
      "mesh": 11,
      "name": "meshNode_Material_u2_v1_0"
    }
  ],
  "samplers": [
    {
      "magFilter": 9729,
      "minFilter": 9987,
      "wrapS": 10497,
      "wrapT": 10497
    }
  ],
  "scene": 0,
  "scenes": [
    {
      "name": "Sketchfab_Scene",
      "nodes": [
        0
      ]
    }
  ],
  "textures": [
    {
      "sampler": 0,
      "source": 0
    },
    {
      "sampler": 0,
      "source": 1
    }
  ]
}
