{
  "accessors": [
    {
      "bufferView": 1,
      "componentType": 5126,
      "count": 4707,
      "max": [
        0.6148430109024048,
        0.5743860006332397,
        1.116529941558838
      ],
      "min": [
        0.10256899893283844,
        -0.6141380071640015,
        0.22328400611877441
      ],
      "type": "VEC3"
    },
    {
      "bufferView": 1,
      "byteOffset": 56484,
      "componentType": 5126,
      "count": 4707,
      "max": [
        0.999843418598175,
        0.9993017315864563,
        0.999995231628418
      ],
      "min": [
        -0.999869704246521,
        -0.9999995827674866,
        -0.999770998954773
      ],
      "type": "VEC3"
    },
    {
      "bufferView": 0,
      "componentType": 5125,
      "count": 15426,
      "type": "SCALAR"
    }
  ],
  "asset": {
    "extras": {
      "author": "tomkart (https://sketchfab.com/tomkart)",
      "license": "CC-BY-4.0 (http://creativecommons.org/licenses/by/4.0/)",
      "source": "https://sketchfab.com/3d-models/race-car-driver-a8503189a20a441893b66e4c57d3231b",
      "title": "Race Car Driver"
    },
    "generator": "Sketchfab-12.68.0",
    "version": "2.0"
  },
  "bufferViews": [
    {
      "buffer": 0,
      "byteLength": 61704,
      "name": "floatBufferViews",
      "target": 34963
    },
    {
      "buffer": 0,
      "byteLength": 112968,
      "byteOffset": 61704,
      "byteStride": 12,
      "name": "floatBufferViews",
      "target": 34962
    }
  ],
  "buffers": [
    {
      "byteLength": 174672,
      "uri": "scene.bin"
    }
  ],
  "materials": [
    {
      "doubleSided": true,
      "name": "Scene_-_Root",
      "pbrMetallicRoughness": {
        "baseColorFactor": [
          0.5259747095201842,
          0.5259747095201842,
          0.5259747095201842,
          1.0
        ],
        "metallicFactor": 0.0
      }
    }
  ],
  "meshes": [
    {
      "name": "Object_0",
      "primitives": [
        {
          "attributes": {
            "NORMAL": 1,
            "POSITION": 0
          },
          "indices": 2,
          "material": 0,
          "mode": 4
        }
      ]
    }
  ],
  "nodes": [
    {
      "children": [
        1
      ],
      "matrix": [
        1.7234389781951904,
        0.0,
        0.0,
        0.0,
        0.0,
        3.826803270257507e-16,
        -1.7234389781951904,
        0.0,
        0.0,
        1.7234389781951904,
        3.826803270257507e-16,
        0.0,
        0.0,
        0.0,
        0.0,
        1.0
      ],
      "name": "Sketchfab_model"
    },
    {
      "children": [
        2
      ],
      "name": "7b9be0954833418bb8617ffdf56b1f90.stl.cleaner.materialmerger.gles"
    },
    {
      "mesh": 0,
      "name": "Object_2"
    }
  ],
  "scene": 0,
  "scenes": [
    {
      "name": "Sketchfab_Scene",
      "nodes": [
        0
      ]
    }
  ]
}
